<?xml version="1.0" encoding="utf-8"?>
<!-- Generator: Adobe Illustrator 16.0.0, SVG Export Plug-In . SVG Version: 6.00 Build 0)  -->
<!DOCTYPE svg PUBLIC "-//W3C//DTD SVG 1.1//EN" "http://www.w3.org/Graphics/SVG/1.1/DTD/svg11.dtd">
<svg version="1.1" id="Layer_1" xmlns="http://www.w3.org/2000/svg" xmlns:xlink="http://www.w3.org/1999/xlink" x="0px" y="0px"
	 width="9.295px" height="9.295px" viewBox="0 0 9.295 9.295" enable-background="new 0 0 9.295 9.295" xml:space="preserve">
<path fill="#C1C6DE" d="M4.647,0.416c-2.337,0-4.231,1.893-4.231,4.232c0,2.337,1.894,4.23,4.231,4.23c2.336,0,4.23-1.894,4.23-4.23
	C8.878,2.309,6.983,0.416,4.647,0.416 M5.638,5.639L2.59,6.704l1.066-3.047l3.05-1.068L5.638,5.639z M4.213,4.648
	c0-0.239,0.194-0.434,0.434-0.434c0.24,0,0.434,0.193,0.434,0.434S4.887,5.081,4.647,5.081C4.409,5.081,4.213,4.887,4.213,4.648"/>
</svg>
