<?xml version="1.0" encoding="utf-8"?>
<!-- Generator: Adobe Illustrator 16.0.0, SVG Export Plug-In . SVG Version: 6.00 Build 0)  -->
<!DOCTYPE svg PUBLIC "-//W3C//DTD SVG 1.1//EN" "http://www.w3.org/Graphics/SVG/1.1/DTD/svg11.dtd">
<svg version="1.1" id="Layer_1" xmlns="http://www.w3.org/2000/svg" xmlns:xlink="http://www.w3.org/1999/xlink" x="0px" y="0px"
	 width="421.479px" height="176.989px" viewBox="0 0 421.479 176.989" enable-background="new 0 0 421.479 176.989"
	 xml:space="preserve">
<path fill-rule="evenodd" clip-rule="evenodd" fill="#FFFFFF" d="M234.75,97.891c4.785,6.495,11.714,9.731,13.73,17.937
	c2.57,10.46,10.363,16.696,20.88,18.396c10.715,1.732,19.778-2.035,26.128-11.053c6.171-8.764,7.169-18.184,2.02-27.774
	c-6.115-11.389-20.791-16.513-33.326-12.171c-2.033,0.704-5.748,1.074-6.52,0.018c-2.055-2.815-3.063-6.451-4.119-9.875
	c-0.149-0.482,1.634-1.854,2.73-2.387c13.4-6.521,26.405-5.354,39.032,2.195c1.136,0.679,2.245,1.399,3.379,2.081
	c0.118,0.071,0.316,0.01,1.073,0.01c1.516-7.927-0.451-15.06-5.444-21.249c-8.728-10.818-24.067-12.972-35.544-5.287
	c-11.063,7.406-14.796,22.523-8.547,34.612c6.127,11.853,20.735,17.151,33.458,12.138c5.207-2.053,7.474-0.83,9.844,5.31
	c1.893,4.902,1.325,5.931-4.566,8.267c-16.163,6.41-35.738,1.615-46.401-11.363c-12.037-14.653-13.398-34.005-3.464-49.256
	C249.11,33.059,267.3,26.139,284.81,31.043c23.014,6.447,35.618,31.004,27.44,53.848c-1.136,3.174-1.261,5.752-0.087,8.979
	c8.285,22.794-4.104,47.107-27.298,53.994c-21.785,6.469-45.673-7.381-51.13-29.803C232.181,111.67,231.332,105.162,234.75,97.891z"
	/>
<path fill-rule="evenodd" clip-rule="evenodd" fill="#FFFFFF" d="M72.837,59.502c8.497-8.467,18.227-12.691,30.053-10.196
	c13.765,2.905,24.109,14.938,24.65,29.026c0.377,9.806,0.088,19.637,0.207,29.454c0.037,3.102-1.011,4.497-4.339,4.46
	c-12.252-0.137-10.192,0.781-10.299-9.947c-0.073-7.324,0.062-14.652-0.018-21.977c-0.106-9.791-6.676-16.814-15.868-17.111
	c-9.046-0.291-16.488,6.521-16.867,16.129c-0.366,9.277-0.247,18.584-0.021,27.869c0.097,3.965-1.232,5.203-5.18,5.072
	c-11.216-0.369-10.066,1.371-10.055-10.229c0.007-7.326,0.08-14.652-0.001-21.977c-0.105-9.432-6.655-16.434-15.61-16.849
	c-9.1-0.421-16.631,6.264-17.059,15.878c-0.406,9.121-0.251,18.277-0.037,27.411c0.098,4.198-1.072,5.978-5.625,5.778
	c-9.386-0.412-9.258,1.486-9.208-9.117c0.033-7.317-0.055-14.637,0.047-21.954c0.195-14.213,6.638-24.78,19.709-30.263
	c12.662-5.309,24.114-2.025,33.906,7.394C71.57,58.688,72.013,58.922,72.837,59.502z"/>
<path fill-rule="evenodd" clip-rule="evenodd" fill="#FFFFFF" d="M364.353,89.039c3.554,11.201,18.293,13.596,25.699,8.244
	c3.969-2.867,5.919-1.602,8.688,1.229c6.473,6.621,6.547,6.774-1.334,11.536c-11.732,7.088-27.598,5.879-37.762-2.877
	c-11.274-9.711-14.998-24.691-9.442-37.983c5.567-13.319,19.022-21.69,32.901-20.468c14.368,1.266,26.252,11.406,29.484,25.159
	c3.275,13.937,2.358,15.157-11.402,15.158C389.046,89.039,376.908,89.039,364.353,89.039z M397.097,74.156
	c-3.539-7.298-10.281-11.555-17.384-10.873c-6.94,0.668-12.466,3.701-15.727,10.873C375.21,74.156,385.895,74.156,397.097,74.156z"
	/>
<path fill-rule="evenodd" clip-rule="evenodd" fill="#FFFFFF" d="M223.443,93.551c0,4.66-0.176,9.33,0.055,13.979
	c0.188,3.768-1.014,5.391-5.033,5.438c-9.745,0.112-9.728,0.27-9.776-9.593c-0.039-7.984,0.182-15.985-0.264-23.948
	c-0.552-9.857-6.946-15.592-16.519-15.523c-8.86,0.064-15.507,6.389-15.893,15.842c-0.373,9.137-0.344,18.305-0.069,27.447
	c0.134,4.444-1.495,6.107-5.753,5.721c-1.651-0.15-3.556,0.438-4.929-0.202c-1.597-0.745-3.867-2.442-3.896-3.771
	c-0.234-10.469-0.681-21.008,0.238-31.41c1.481-16.76,15.593-29.033,31.615-28.578c16.25,0.461,28.714,12.646,30.004,29.631
	c0.376,4.963,0.058,9.979,0.058,14.969C223.334,93.551,223.388,93.551,223.443,93.551z"/>
<path fill-rule="evenodd" clip-rule="evenodd" fill="#FFFFFF" d="M338.542,70.818c0,11.814-0.135,23.632,0.07,35.443
	c0.076,4.422-1.178,6.207-5.943,6.063c-9.05-0.275-9.052-0.006-9.063-8.855c-0.028-22.947,0.042-45.895-0.182-68.838
	c-0.047-4.77,1.414-6.865,6.268-6.168c1.142,0.164,2.343,0.15,3.489,0.002c4.178-0.539,5.594,1.377,5.551,5.401
	c-0.132,12.316-0.049,24.634-0.049,36.952C338.636,70.818,338.589,70.818,338.542,70.818z"/>
<path fill-rule="evenodd" clip-rule="evenodd" fill="#FFFFFF" d="M137.574,80.893c0-8.971,0.135-17.945-0.065-26.912
	c-0.081-3.625,1.123-4.994,4.801-5.1c10.011-0.291,9.997-0.42,9.989,9.41c-0.014,16.094-0.14,32.189,0.066,48.281
	c0.058,4.433-1.025,6.219-5.837,5.98c-9.021-0.449-8.985-0.182-8.892-9.344c0.076-7.438,0.016-14.877,0.016-22.316
	C137.625,80.893,137.6,80.893,137.574,80.893z"/>
</svg>
