<?xml version="1.0" encoding="utf-8"?>
<!-- Generator: Adobe Illustrator 16.0.0, SVG Export Plug-In . SVG Version: 6.00 Build 0)  -->
<!DOCTYPE svg PUBLIC "-//W3C//DTD SVG 1.1//EN" "http://www.w3.org/Graphics/SVG/1.1/DTD/svg11.dtd">
<svg version="1.1" id="Layer_1" xmlns="http://www.w3.org/2000/svg" xmlns:xlink="http://www.w3.org/1999/xlink" x="0px" y="0px"
	 width="9.295px" height="9.295px" viewBox="0 0 9.295 9.295" enable-background="new 0 0 9.295 9.295" xml:space="preserve">
<g>
	<path fill="#5C5DA8" d="M0.242,1.588c0-0.74,0.605-1.346,1.346-1.346h6.118c0.74,0,1.346,0.606,1.346,1.346v6.118
		c0,0.74-0.605,1.346-1.346,1.346H1.588c-0.74,0-1.346-0.605-1.346-1.346V1.588z"/>
	<g>
		<defs>
			<path id="SVGID_1_" d="M0.242,1.588c0-0.74,0.605-1.346,1.346-1.346h6.118c0.74,0,1.346,0.606,1.346,1.346v6.118
				c0,0.74-0.605,1.346-1.346,1.346H1.588c-0.74,0-1.346-0.605-1.346-1.346V1.588z"/>
		</defs>
		<clipPath id="SVGID_2_">
			<use xlink:href="#SVGID_1_"  overflow="visible"/>
		</clipPath>
		<path clip-path="url(#SVGID_2_)" fill="#5C5DA8" d="M7.208,9.052H3.433c-0.74,0-1.761-0.186-2.268-0.413
			C0.657,8.412,0.242,6.603,0.242,5.862V3.432c0-0.74,0.186-1.76,0.414-2.268c0.227-0.507,2.037-0.922,2.777-0.922H5.86
			c0.74,0,1.762,0.186,2.269,0.413c0.507,0.227,0.922,2.037,0.922,2.776v2.431c0,0.74-0.185,1.761-0.413,2.268
			C8.412,8.637,8.226,9.052,7.208,9.052"/>
	</g>
</g>
<path fill="#FFFFFF" d="M5.606,3.131H2.452c-0.16,0-0.288-0.127-0.288-0.284c0-0.157,0.128-0.285,0.288-0.285h3.154
	c0.159,0,0.287,0.127,0.287,0.285C5.894,3.004,5.766,3.131,5.606,3.131"/>
<path fill="#FFFFFF" d="M6.845,4.931H2.452c-0.159,0-0.288-0.129-0.288-0.285c0-0.157,0.128-0.285,0.288-0.285h4.391
	c0.156,0,0.285,0.128,0.285,0.285C7.129,4.802,7.001,4.931,6.845,4.931"/>
<path fill="#FFFFFF" d="M4.031,6.729H2.452c-0.16,0-0.288-0.129-0.288-0.285c0-0.155,0.128-0.283,0.288-0.283h1.576
	c0.158,0,0.288,0.128,0.288,0.283C4.316,6.601,4.188,6.729,4.031,6.729"/>
</svg>
